<?xml version="1.0" encoding="UTF-8" standalone="no"?>
<!-- Uploaded to: SVG Repo, www.svgrepo.com, Generator: SVG Repo Mixer Tools -->

<svg
   fill="#000000"
   width="800px"
   height="800px"
   viewBox="0 0 24 24"
   role="img"
   version="1.1"
   id="svg1"
   sodipodi:docname="nixos-logo.svg"
   inkscape:version="1.4.3 (0d15f75042, 2025-12-25)"
   xmlns:inkscape="http://www.inkscape.org/namespaces/inkscape"
   xmlns:sodipodi="http://sodipodi.sourceforge.net/DTD/sodipodi-0.dtd"
   xmlns="http://www.w3.org/2000/svg"
   xmlns:svg="http://www.w3.org/2000/svg"
   xmlns:rdf="http://www.w3.org/1999/02/22-rdf-syntax-ns#"
   xmlns:cc="http://creativecommons.org/ns#"
   xmlns:dc="http://purl.org/dc/elements/1.1/">
  <defs
     id="defs1" />
  <sodipodi:namedview
     id="namedview1"
     pagecolor="#262626"
     bordercolor="#000000"
     borderopacity="0.25"
     inkscape:showpageshadow="2"
     inkscape:pageopacity="0.0"
     inkscape:pagecheckerboard="0"
     inkscape:deskcolor="#d1d1d1"
     inkscape:zoom="1.215"
     inkscape:cx="400"
     inkscape:cy="400"
     inkscape:window-width="2226"
     inkscape:window-height="1181"
     inkscape:window-x="0"
     inkscape:window-y="0"
     inkscape:window-maximized="1"
     inkscape:current-layer="svg1" />
  <title
     id="title1">NixOS icon</title>
  <path
     d="M7.352 1.592l-1.364.002L5.32 2.75l1.557 2.713-3.137-.008-1.32 2.34H14.11l-1.353-2.332-3.192-.006-2.214-3.865zm6.175 0l-2.687.025 5.846 10.127 1.341-2.34-1.59-2.765 2.24-3.85-.683-1.182h-1.336l-1.57 2.705-1.56-2.72zm6.887 4.195l-5.846 10.125 2.696-.008 1.601-2.76 4.453.016.682-1.183-.666-1.157-3.13-.008L21.778 8.1l-1.365-2.313zM9.432 8.086l-2.696.008-1.601 2.76-4.453-.016L0 12.02l.666 1.157 3.13.008-1.575 2.71 1.365 2.315L9.432 8.086zM7.33 12.25l-.006.01-.002-.004-1.342 2.34 1.59 2.765-2.24 3.85.684 1.182H7.35l.004-.006h.001l1.567-2.698 1.558 2.72 2.688-.026-.004-.006h.01L7.33 12.25zm2.55 3.93l1.354 2.332 3.192.006 2.215 3.865 1.363-.002.668-1.156-1.557-2.713 3.137.008 1.32-2.34H9.881Z"
     id="path1"
     style="fill:#818cf8;fill-opacity:1" />
  <metadata
     id="metadata1">
    <rdf:RDF>
      <cc:Work
         rdf:about="">
        <dc:title>NixOS icon</dc:title>
      </cc:Work>
    </rdf:RDF>
  </metadata>
</svg>
