<svg xmlns="http://www.w3.org/2000/svg" viewBox="0 0 502 435" width="502" height="435">
  <defs>
    <linearGradient id="grad1" x1="0%" y1="0%" x2="100%" y2="100%">
      <stop offset="0%" style="stop-color:#5277c3;stop-opacity:1" />
      <stop offset="50%" style="stop-color:#7ebae4;stop-opacity:1" />
      <stop offset="100%" style="stop-color:#719efa;stop-opacity:1" />
    </linearGradient>
    <linearGradient id="grad2" x1="0%" y1="0%" x2="100%" y2="100%">
      <stop offset="0%" style="stop-color:#415e9a;stop-opacity:1" />
      <stop offset="100%" style="stop-color:#5277c3;stop-opacity:1" />
    </linearGradient>
  </defs>
  <g transform="translate(0,0)">
    <path fill="url(#grad2)" d="m309.4,-710.3 122.2,211.7 -56.2,0.5 -32.6,-56.9 -32.9,56.6 -27.9,0 -14.3,-24.7 46.8,-80.5 -33.2,-57.8z"/>
    <path fill="url(#grad1)" d="m353.5,-797.4 -122.2,211.7 -28.5,-48.4 32.9,-56.7 -65.4,-0.2 -13.9,-24.2 14.2,-24.7 93.1,0.3 33.5,-57.7z"/>
    <path fill="url(#grad1)" d="m362.9,-628.2 244.4,0 -27.6,48.9 -65.6,-0.2 32.6,56.7 -14,24.2 -28.5,0 -46.3,-80.8 -66.7,-0.1z"/>
    <path fill="url(#grad1)" d="m505.1,-721 -122.2,-211.7 56.2,-0.5 32.6,56.9 32.9,-56.6 27.9,0 14.3,24.7 -46.8,80.5 33.2,57.8z"/>
    <path fill="url(#grad2)" d="m309.4,-710.3 122.2,211.7 -56.2,0.5 -32.6,-56.9 -32.9,56.6 -27.9,0 -14.3,-24.7 46.8,-80.5 -33.2,-57.8z"/>
    <path fill="url(#grad2)" d="m451.3,-803.5 -244.4,0 27.6,-48.9 65.6,0.2 -32.6,-56.7 14,-24.2 28.5,0 46.3,80.8 66.7,0.1z"/>
    <path fill="url(#grad2)" d="m460.9,-633.8 122.2,-211.7 28.5,48.4 -32.9,56.7 65.4,0.2 13.9,24.2 -14.2,24.7 -93.1,-0.3 -33.5,57.7z"/>
  </g>
</svg>